# Blender v2.69 (sub 0) OBJ File: ''
# www.blender.org
o Plane
v 1.036326 0.409799 0.412648
v -0.963674 0.409799 0.412648
v 1.036326 0.409799 -1.587352
v -0.963674 0.409799 -1.587352
v 0.036326 0.409799 0.412648
v 0.036326 0.409799 -1.587352
v -0.963674 0.409799 -0.587352
v 1.036326 0.409799 -0.587352
v 0.036326 0.409799 -0.587352
vt 0.500000 0.500000
vt 0.500000 0.000000
vt 1.000000 0.000000
vt 1.000000 0.500000
vt 0.500000 1.000000
vt 1.000000 1.000000
vt 0.000000 1.000000
vt 0.000000 0.500000
vt 0.000000 0.000000
vn 0.000000 1.000000 0.000000
s off
f 9/1/1 8/2/1 3/3/1 6/4/1
f 7/5/1 9/1/1 6/4/1 4/6/1
f 2/7/1 5/8/1 9/1/1 7/5/1
f 5/8/1 1/9/1 8/2/1 9/1/1
